<svg width="240" height="50" viewBox="0 0 240 50" fill="none" xmlns="http://www.w3.org/2000/svg">
<rect width="240" height="50" rx="5" fill="white"/>
<path d="M58 25.3218C58 24.3801 57.9166 23.4861 57.7735 22.616H44.304V27.9919H52.0162C51.6705 29.756 50.6573 31.246 49.1554 32.2592V35.8352H53.7565C56.4504 33.3439 58 29.6726 58 25.3218Z" fill="#4285F4"/>
<path d="M44.3041 39.304C48.1662 39.304 51.3965 38.0167 53.7567 35.8353L49.1556 32.2593C47.8682 33.1176 46.2352 33.642 44.3041 33.642C40.5732 33.642 37.4144 31.1269 36.282 27.7297H31.5378V31.413C33.8861 36.0856 38.7137 39.304 44.3041 39.304Z" fill="#34A853"/>
<path d="M36.2818 27.7298C35.9838 26.8715 35.8289 25.9537 35.8289 25.0001C35.8289 24.0465 35.9957 23.1287 36.2818 22.2704V18.5872H31.5377C30.5602 20.5182 30 22.6876 30 25.0001C30 27.3126 30.5602 29.482 31.5377 31.413L36.2818 27.7298Z" fill="#FBBC05"/>
<path d="M44.3041 16.358C46.414 16.358 48.2973 17.0852 49.7873 18.5036L53.8639 14.427C51.3965 12.1145 48.1662 10.696 44.3041 10.696C38.7137 10.696 33.8861 13.9144 31.5378 18.5871L36.282 22.2703C37.4144 18.8731 40.5732 16.358 44.3041 16.358Z" fill="#EA4335"/>
<path d="M83.1273 19.228V20.3H92.1673V19.228H83.1273ZM81.4953 25.436V26.524H94.5673V25.436H81.4953ZM87.3353 26.156V32.764H88.6633V26.156H87.3353ZM91.5433 19.228V20.476C91.5433 21.932 91.5433 23.612 90.9833 25.948L92.2953 26.124C92.8393 23.676 92.8393 21.98 92.8393 20.476V19.228H91.5433ZM97.8781 18.892V19.964H107.19V18.892H97.8781ZM96.2141 23.66V24.748H109.318V23.66H96.2141ZM106.326 18.892V19.82C106.326 20.844 106.326 22.092 105.942 23.852L107.238 23.996C107.622 22.204 107.622 20.86 107.622 19.82V18.892H106.326ZM97.7501 26.172V27.244H106.358V28.828H97.7821V31.868H99.1101V29.852H107.67V26.172H97.7501ZM97.7821 31.516V32.588H108.038V31.516H97.7821ZM110.933 29.868V30.972H124.037V29.868H110.933ZM116.789 26.764V30.332H118.117V26.764H116.789ZM112.517 19.356V20.428H121.109V22.668H112.565V26.636H113.877V23.74H122.421V19.356H112.517ZM112.565 26.076V27.164H122.757V26.076H112.565ZM134.83 22.3V23.372H138.046V22.3H134.83ZM134.718 25.932V27.004H138.014V25.932H134.718ZM140.238 18.284V32.748H141.518V18.284H140.238ZM137.342 18.652V32.012H138.59V18.652H137.342ZM134.11 20.108V20.348C134.11 23.756 132.59 26.636 129.214 28.684L129.982 29.628C133.87 27.308 135.39 23.9 135.39 20.108H134.11ZM129.854 20.108V21.196H134.638V20.108H129.854ZM143.932 25.532V26.62H157.052V25.532H143.932ZM149.804 23.34V26.028H151.116V23.34H149.804ZM149.788 18.508V19.148C149.788 21.084 147.308 22.684 144.716 23.036L145.228 24.092C148.172 23.612 150.94 21.756 150.94 19.148V18.508H149.788ZM149.996 18.508V19.148C149.996 21.756 152.78 23.596 155.708 24.092L156.204 23.036C153.628 22.684 151.132 21.084 151.132 19.148V18.508H149.996ZM145.388 28.028V29.1H154.06V32.748H155.388V28.028H145.388ZM168.459 18.284V32.748H169.787V18.284H168.459ZM169.467 24.22V25.34H172.155V24.22H169.467ZM158.587 20.588V21.676H167.115V20.588H158.587ZM162.907 22.876C160.875 22.876 159.387 24.252 159.387 26.204C159.387 28.156 160.875 29.532 162.907 29.532C164.955 29.532 166.427 28.156 166.427 26.204C166.427 24.252 164.955 22.876 162.907 22.876ZM162.907 23.98C164.219 23.98 165.163 24.892 165.163 26.204C165.163 27.5 164.219 28.428 162.907 28.428C161.595 28.428 160.651 27.5 160.651 26.204C160.651 24.892 161.595 23.98 162.907 23.98ZM162.219 18.46V21.084H163.547V18.46H162.219ZM183.914 18.284V32.748H185.242V18.284H183.914ZM179.674 19.836V20.06C179.674 23.9 177.738 26.972 173.562 28.988L174.266 30.06C179.098 27.692 180.986 24.028 180.986 19.836H179.674ZM174.218 19.836V20.924H180.25V19.836H174.218Z" fill="#181818"/>
<rect x="0.5" y="0.5" width="239" height="49" rx="4.5" stroke="black" stroke-opacity="0.12"/>
</svg>
