<svg width="240" height="50" viewBox="0 0 240 50" fill="none" xmlns="http://www.w3.org/2000/svg">
<rect width="240" height="50" rx="5" fill="white"/>
<g clip-path="url(#clip0_191_28075)">
<path d="M58 36.8125C58 38.0207 57.0207 39 55.8125 39H32.1875C30.9793 39 30 38.0207 30 36.8125V13.1875C30 11.9793 30.9793 11 32.1875 11H55.8125C57.0207 11 58 11.9793 58 13.1875V36.8125Z" fill="#FFE812"/>
<path d="M44 14.9375C37.7177 14.9375 32.625 18.953 32.625 23.9062C32.625 27.1086 34.7541 29.9186 37.9568 31.5053C37.7826 32.1062 36.8371 35.371 36.7995 35.6275C36.7995 35.6275 36.7769 35.8202 36.9017 35.8937C37.0265 35.9672 37.1733 35.9102 37.1733 35.9102C37.5311 35.8602 41.3233 33.1965 41.9796 32.7339C42.6353 32.8268 43.3105 32.875 44 32.875C50.2823 32.875 55.375 28.8596 55.375 23.9062C55.375 18.953 50.2823 14.9375 44 14.9375Z" fill="black"/>
<path d="M37.7109 27.0371C37.349 27.0371 37.0547 26.756 37.0547 26.4104V22.5117H36.0307C35.6756 22.5117 35.3867 22.2234 35.3867 21.8691C35.3867 21.5149 35.6757 21.2266 36.0307 21.2266H39.3912C39.7463 21.2266 40.0352 21.5149 40.0352 21.8691C40.0352 22.2234 39.7462 22.5117 39.3912 22.5117H38.3672V26.4104C38.3672 26.756 38.0729 27.0371 37.7109 27.0371ZM43.4654 27.0286C43.1917 27.0286 42.9824 26.9175 42.9193 26.7387L42.5943 25.888L40.5932 25.8879L40.268 26.7392C40.2051 26.9176 39.9959 27.0286 39.7222 27.0286C39.5783 27.0287 39.436 26.9978 39.3051 26.938C39.1242 26.8546 38.9503 26.6251 39.1495 26.0061L40.7193 21.8744C40.8299 21.5602 41.1658 21.2364 41.5932 21.2267C42.0218 21.2363 42.3577 21.5602 42.4685 21.875L44.0376 26.0049C44.2373 26.6253 44.0634 26.8549 43.8825 26.9381C43.7516 26.9978 43.6093 27.0287 43.4654 27.0286C43.4654 27.0286 43.4653 27.0286 43.4654 27.0286ZM42.2492 24.7256L41.5938 22.8635L40.9383 24.7256H42.2492ZM45.0938 26.9414C44.7469 26.9414 44.4648 26.6715 44.4648 26.3398V21.8828C44.4648 21.5209 44.7654 21.2266 45.1348 21.2266C45.5041 21.2266 45.8047 21.5209 45.8047 21.8828V25.7383H47.1992C47.546 25.7383 47.8281 26.0082 47.8281 26.3398C47.8281 26.6715 47.546 26.9414 47.1992 26.9414H45.0938ZM48.7397 27.0286C48.3777 27.0286 48.0834 26.7342 48.0834 26.3723V21.8828C48.0834 21.5209 48.3777 21.2266 48.7397 21.2266C49.1016 21.2266 49.3959 21.5209 49.3959 21.8828V23.2933L51.2268 21.4624C51.321 21.3682 51.4504 21.3164 51.5908 21.3164C51.7547 21.3164 51.9192 21.387 52.0425 21.5102C52.1574 21.625 52.226 21.7728 52.2354 21.9262C52.2449 22.081 52.1934 22.2229 52.0906 22.3258L50.5951 23.821L52.2105 25.9611C52.2626 26.0297 52.3006 26.1081 52.3222 26.1915C52.3439 26.275 52.3487 26.3619 52.3365 26.4472C52.3248 26.5326 52.2962 26.6149 52.2525 26.6892C52.2088 26.7635 52.1508 26.8283 52.0818 26.88C51.9683 26.9663 51.8296 27.0128 51.6871 27.0125C51.5854 27.013 51.485 26.9896 51.394 26.9443C51.303 26.899 51.2238 26.833 51.1629 26.7516L49.6238 24.7125L49.3961 24.9402V26.372C49.3959 26.5461 49.3267 26.7129 49.2036 26.836C49.0806 26.9591 48.9137 27.0283 48.7397 27.0286Z" fill="#FFE812"/>
</g>
<path d="M80.2799 19.788V19.932C80.2799 23.868 78.8399 27.1 74.2639 29.356L74.9839 30.38C80.1679 27.804 81.5759 23.964 81.5759 19.788H80.2799ZM75.0479 19.788V20.86H81.0639V19.788H75.0479ZM80.0719 23.372L74.3279 23.756L74.5359 24.94L80.0719 24.396V23.372ZM83.9119 18.268V32.748H85.2559V18.268H83.9119ZM84.8879 24.14V25.244H87.5599V24.14H84.8879ZM94.9987 19.788V19.932C94.9987 23.868 93.5587 27.1 88.9827 29.356L89.7027 30.38C94.8867 27.804 96.2947 23.964 96.2947 19.788H94.9987ZM89.7667 19.788V20.86H95.7827V19.788H89.7667ZM94.7907 23.372L89.0467 23.756L89.2547 24.94L94.7907 24.396V23.372ZM98.6307 18.268V32.748H99.9747V18.268H98.6307ZM99.6067 24.14V25.244H102.279V24.14H99.6067ZM109.429 26.46V30.06H110.757V26.46H109.429ZM110.101 19.228C107.045 19.228 104.837 20.716 104.837 23.02C104.837 25.324 107.045 26.812 110.101 26.812C113.157 26.812 115.349 25.324 115.349 23.02C115.349 20.716 113.157 19.228 110.101 19.228ZM110.101 20.284C112.389 20.284 114.069 21.372 114.069 23.02C114.069 24.668 112.389 25.756 110.101 25.756C107.797 25.756 106.117 24.668 106.117 23.02C106.117 21.372 107.797 20.284 110.101 20.284ZM103.573 29.804V30.908H116.677V29.804H103.573ZM118.292 29.868V30.972H131.396V29.868H118.292ZM124.148 26.764V30.332H125.476V26.764H124.148ZM119.876 19.356V20.428H128.468V22.668H119.924V26.636H121.236V23.74H129.78V19.356H119.876ZM119.924 26.076V27.164H130.116V26.076H119.924ZM142.189 22.3V23.372H145.405V22.3H142.189ZM142.077 25.932V27.004H145.373V25.932H142.077ZM147.597 18.284V32.748H148.877V18.284H147.597ZM144.701 18.652V32.012H145.949V18.652H144.701ZM141.469 20.108V20.348C141.469 23.756 139.949 26.636 136.573 28.684L137.341 29.628C141.229 27.308 142.749 23.9 142.749 20.108H141.469ZM137.213 20.108V21.196H141.997V20.108H137.213ZM151.292 25.532V26.62H164.412V25.532H151.292ZM157.164 23.34V26.028H158.476V23.34H157.164ZM157.148 18.508V19.148C157.148 21.084 154.668 22.684 152.076 23.036L152.588 24.092C155.532 23.612 158.3 21.756 158.3 19.148V18.508H157.148ZM157.356 18.508V19.148C157.356 21.756 160.14 23.596 163.068 24.092L163.564 23.036C160.988 22.684 158.492 21.084 158.492 19.148V18.508H157.356ZM152.748 28.028V29.1H161.42V32.748H162.748V28.028H152.748ZM175.819 18.284V32.748H177.147V18.284H175.819ZM176.827 24.22V25.34H179.515V24.22H176.827ZM165.947 20.588V21.676H174.475V20.588H165.947ZM170.267 22.876C168.235 22.876 166.747 24.252 166.747 26.204C166.747 28.156 168.235 29.532 170.267 29.532C172.315 29.532 173.787 28.156 173.787 26.204C173.787 24.252 172.315 22.876 170.267 22.876ZM170.267 23.98C171.579 23.98 172.523 24.892 172.523 26.204C172.523 27.5 171.579 28.428 170.267 28.428C168.955 28.428 168.011 27.5 168.011 26.204C168.011 24.892 168.955 23.98 170.267 23.98ZM169.579 18.46V21.084H170.907V18.46H169.579ZM191.273 18.284V32.748H192.601V18.284H191.273ZM187.033 19.836V20.06C187.033 23.9 185.097 26.972 180.921 28.988L181.625 30.06C186.457 27.692 188.345 24.028 188.345 19.836H187.033ZM181.577 19.836V20.924H187.609V19.836H181.577Z" fill="#181818"/>
<rect x="0.5" y="0.5" width="239" height="49" rx="4.5" stroke="black" stroke-opacity="0.12"/>
<defs>
<clipPath id="clip0_191_28075">
<rect width="28" height="28" fill="white" transform="translate(30 11)"/>
</clipPath>
</defs>
</svg>
