<?xml version="1.0" encoding="UTF-8"?> <svg xmlns="http://www.w3.org/2000/svg" viewBox="0 0 134.71 134.71"><defs><style>.a2d84f66-8488-452e-afb1-62bf3ed7eae0{fill:#92c3e0;}.bf334570-561d-498f-8821-f796f964d577{fill:#184896;}.bc7b3f85-703b-4f34-9e44-ba0c72b2b9d9{fill:#0e203e;}.faeb80f1-d4c4-43c2-9061-410e14c6e728{fill:#ffd2a0;}.b6b35c09-8cc1-45a4-a25d-291151364cad{fill:none;stroke:#ffa742;stroke-miterlimit:10;stroke-width:3.93px;}.bd578c8f-ea1d-47a5-a3d1-c9211fb9d1b2{fill:#ffa742;}.b713bd07-4ab0-4fc4-a9ba-56cfd8d97a32{fill:#ff8e0d;}</style></defs><g id="edffd5db-cd7c-48e4-b9a8-c022a52ea9a4" data-name="Layer 2"><g id="a24452fd-69a5-4278-9f44-54c55eb2b57a" data-name="exports"><rect class="a2d84f66-8488-452e-afb1-62bf3ed7eae0" x="62.09" width="10.52" height="34.31" rx="5.26"></rect><rect class="a2d84f66-8488-452e-afb1-62bf3ed7eae0" x="38.65" width="10.52" height="34.31" rx="5.26"></rect><rect class="a2d84f66-8488-452e-afb1-62bf3ed7eae0" x="85.54" width="10.52" height="34.31" rx="5.26"></rect><rect class="a2d84f66-8488-452e-afb1-62bf3ed7eae0" x="112.3" y="50.2" width="10.52" height="34.31" rx="5.26" transform="translate(184.91 -50.2) rotate(90)"></rect><rect class="a2d84f66-8488-452e-afb1-62bf3ed7eae0" x="112.3" y="26.76" width="10.52" height="34.31" rx="5.26" transform="translate(161.47 -73.64) rotate(90)"></rect><rect class="a2d84f66-8488-452e-afb1-62bf3ed7eae0" x="100.4" y="85.54" width="34.31" height="10.52" rx="5.26"></rect><rect class="a2d84f66-8488-452e-afb1-62bf3ed7eae0" x="11.89" y="50.2" width="10.52" height="34.31" rx="5.26" transform="translate(84.51 50.2) rotate(90)"></rect><rect class="a2d84f66-8488-452e-afb1-62bf3ed7eae0" x="11.89" y="26.76" width="10.52" height="34.31" rx="5.26" transform="matrix(0, 1, -1, 0, 61.07, 26.76)"></rect><rect class="a2d84f66-8488-452e-afb1-62bf3ed7eae0" x="11.89" y="73.64" width="10.52" height="34.31" rx="5.26" transform="translate(107.95 73.64) rotate(90)"></rect><path class="a2d84f66-8488-452e-afb1-62bf3ed7eae0" d="M38.65,112.18v17a5.41,5.41,0,0,0,5.1,5.48,5.26,5.26,0,0,0,5.42-5.26V112.18a1.83,1.83,0,0,0-1.83-1.83H40.48A1.83,1.83,0,0,0,38.65,112.18Z"></path><path class="a2d84f66-8488-452e-afb1-62bf3ed7eae0" d="M62.09,112.18v17a5.41,5.41,0,0,0,5.1,5.48,5.27,5.27,0,0,0,5.43-5.26V112.18a1.83,1.83,0,0,0-1.83-1.83H63.92A1.83,1.83,0,0,0,62.09,112.18Z"></path><path class="a2d84f66-8488-452e-afb1-62bf3ed7eae0" d="M85.54,112.18v17a5.41,5.41,0,0,0,5.1,5.48,5.26,5.26,0,0,0,5.42-5.26V112.18a1.83,1.83,0,0,0-1.83-1.83H87.37A1.83,1.83,0,0,0,85.54,112.18Z"></path><rect class="bf334570-561d-498f-8821-f796f964d577" x="19.17" y="19.17" width="96.36" height="96.36" rx="5.49"></rect><path class="bc7b3f85-703b-4f34-9e44-ba0c72b2b9d9" d="M110.05,108.22H24.66a5.49,5.49,0,0,1-5.49-5.49v7.32a5.49,5.49,0,0,0,5.49,5.49h85.39a5.49,5.49,0,0,0,5.49-5.49v-7.32A5.49,5.49,0,0,1,110.05,108.22Z"></path><path class="faeb80f1-d4c4-43c2-9061-410e14c6e728" d="M53.49,95.67H81.22A6.57,6.57,0,0,0,87,92.13l14.45-25.41a6.59,6.59,0,0,0,0-6L87,32.83a6.57,6.57,0,0,0-5.82-3.54H53.49a6.57,6.57,0,0,0-5.82,3.54L33.22,60.67a6.59,6.59,0,0,0,0,6L47.67,92.13A6.57,6.57,0,0,0,53.49,95.67Z"></path><line class="b6b35c09-8cc1-45a4-a25d-291151364cad" x1="67.36" y1="29.29" x2="67.36" y2="95.67"></line><polygon class="bd578c8f-ea1d-47a5-a3d1-c9211fb9d1b2" points="56.23 85 48.25 85 48.25 80.63 53.74 80.63 57.5 74.26 67.36 74.26 67.36 78.63 59.99 78.63 56.23 85"></polygon><path class="bd578c8f-ea1d-47a5-a3d1-c9211fb9d1b2" d="M39,62.38H32.71a7.21,7.21,0,0,0,.55,4.36h8.23l3.76-6.36H49.8V56h-7Z"></path><polygon class="bd578c8f-ea1d-47a5-a3d1-c9211fb9d1b2" points="67.36 55.89 55.38 55.89 51.61 49.52 48.25 49.52 48.25 45.15 54.11 45.15 57.87 51.52 67.36 51.52 67.36 55.89"></polygon><polygon class="bd578c8f-ea1d-47a5-a3d1-c9211fb9d1b2" points="44.09 39.73 52.31 39.73 52.31 35.36 46.36 35.36 44.09 39.73"></polygon><polygon class="bd578c8f-ea1d-47a5-a3d1-c9211fb9d1b2" points="50.86 71.96 47.77 68.87 54.26 62.38 67.36 62.38 67.36 66.74 56.07 66.74 50.86 71.96"></polygon><polygon class="bd578c8f-ea1d-47a5-a3d1-c9211fb9d1b2" points="38.72 76.2 46.28 76.2 46.28 71.84 36.46 71.84 38.72 76.2"></polygon><polygon class="bd578c8f-ea1d-47a5-a3d1-c9211fb9d1b2" points="43.04 49.52 43.04 45.15 41.27 45.15 39.01 49.52 43.04 49.52"></polygon><polygon class="bd578c8f-ea1d-47a5-a3d1-c9211fb9d1b2" points="65.49 44.71 60.51 39.73 56.44 39.73 56.44 35.36 62.32 35.36 68.58 41.63 65.49 44.71"></polygon><polygon class="bd578c8f-ea1d-47a5-a3d1-c9211fb9d1b2" points="78.43 85 86.41 85 86.41 80.63 80.92 80.63 77.16 74.26 67.31 74.26 67.31 78.63 74.67 78.63 78.43 85"></polygon><path class="bd578c8f-ea1d-47a5-a3d1-c9211fb9d1b2" d="M102,62.38H95.66L91.9,56h-7v4.37h4.55l3.76,6.36h8.26l.17-.34A7.19,7.19,0,0,0,102,62.38Z"></path><polygon class="bd578c8f-ea1d-47a5-a3d1-c9211fb9d1b2" points="67.31 55.89 79.29 55.89 83.05 49.52 86.41 49.52 86.41 45.15 80.55 45.15 76.79 51.52 67.31 51.52 67.31 55.89"></polygon><polygon class="bd578c8f-ea1d-47a5-a3d1-c9211fb9d1b2" points="90.57 39.73 82.35 39.73 82.35 35.36 88.31 35.36 90.57 39.73"></polygon><polygon class="bd578c8f-ea1d-47a5-a3d1-c9211fb9d1b2" points="83.81 71.96 86.89 68.87 80.4 62.38 67.31 62.38 67.31 66.74 78.59 66.74 83.81 71.96"></polygon><polygon class="bd578c8f-ea1d-47a5-a3d1-c9211fb9d1b2" points="95.94 76.2 88.38 76.2 88.38 71.84 98.2 71.84 95.94 76.2"></polygon><polygon class="bd578c8f-ea1d-47a5-a3d1-c9211fb9d1b2" points="91.63 49.52 91.63 45.15 93.39 45.15 95.65 49.52 91.63 49.52"></polygon><polygon class="bd578c8f-ea1d-47a5-a3d1-c9211fb9d1b2" points="69.17 44.71 74.15 39.73 78.22 39.73 78.22 35.36 72.35 35.36 66.08 41.63 69.17 44.71"></polygon><path class="b713bd07-4ab0-4fc4-a9ba-56cfd8d97a32" d="M100.42,58.62,87.24,84a7.27,7.27,0,0,1-6.46,3.92H53.93A7.27,7.27,0,0,1,47.47,84L34.29,58.62l-.9,1.72a7.29,7.29,0,0,0,0,6.71L47.47,92.71a7.26,7.26,0,0,0,6.46,3.93H80.78a7.26,7.26,0,0,0,6.46-3.93l14.08-25.66a7.29,7.29,0,0,0,0-6.71Z"></path></g></g></svg> 