<svg width="21" height="16" viewBox="0 0 21 16" fill="none" xmlns="http://www.w3.org/2000/svg">
<path fill-rule="evenodd" clip-rule="evenodd" d="M10.625 6.44538C9.798 6.44538 9.125 7.15493 9.125 8.02684C9.125 8.89875 9.798 9.60829 10.625 9.60829C11.452 9.60829 12.125 8.89875 12.125 8.02684C12.125 7.15493 11.452 6.44538 10.625 6.44538ZM10.625 11.7169C8.695 11.7169 7.125 10.0616 7.125 8.02683C7.125 5.99203 8.695 4.33677 10.625 4.33677C12.555 4.33677 14.125 5.99203 14.125 8.02683C14.125 10.0616 12.555 11.7169 10.625 11.7169ZM20.493 7.50179C19.854 6.32941 16.331 0.452711 10.354 0.649866C4.827 0.798523 1.611 5.93299 0.757 7.50179C0.581 7.82757 0.581 8.2261 0.757 8.55188C1.387 9.70845 4.787 15.407 10.65 15.407C10.731 15.407 10.813 15.4059 10.896 15.4038C16.423 15.2551 19.639 10.1207 20.493 8.55188C20.669 8.2261 20.669 7.82757 20.493 7.50179Z" fill="#343C44"/>
</svg>
