<svg width="21" height="20" viewBox="0 0 21 20" fill="none" xmlns="http://www.w3.org/2000/svg">
<path fill-rule="evenodd" clip-rule="evenodd" d="M18.032 16.3995L19.332 17.7701C19.723 18.1823 19.723 18.8486 19.332 19.2609C19.137 19.4665 18.881 19.5698 18.625 19.5698C18.369 19.5698 18.113 19.4665 17.918 19.2609L15.211 16.4069L14.625 15.7891L13.28 14.371L13.211 14.2983L10.7087 11.6601C10.681 11.6617 10.6531 11.6625 10.625 11.6625C9.798 11.6625 9.125 10.953 9.125 10.081C9.125 10.0514 9.12578 10.022 9.12731 9.99281L5.908 6.59868L4.157 4.75259L1.918 2.392C1.527 1.97977 1.527 1.31345 1.918 0.901216C2.309 0.488983 2.941 0.488983 3.332 0.901216L5.045 2.70724L6.51 4.2518L10.5413 8.50202C10.569 8.50041 10.5969 8.49959 10.625 8.49959C11.452 8.49959 12.125 9.20914 12.125 10.081C12.125 10.1107 12.1242 10.1401 12.1227 10.1693L16.039 14.2983L18.032 16.3995ZM7.2178 3.50661L10.0148 6.4555C10.2138 6.4186 10.4158 6.39119 10.6248 6.39119C12.5548 6.39119 14.1248 8.04645 14.1248 10.0813C14.1248 10.3016 14.0988 10.5146 14.0638 10.7244L16.7458 13.5531L17.5798 14.4324C19.1018 12.969 20.0778 11.3675 20.4928 10.6052C20.6688 10.2805 20.6688 9.88094 20.4928 9.55621C19.8548 8.38383 16.3308 2.50713 10.3548 2.70429C9.1708 2.73697 8.0988 3.00582 7.1268 3.41173L7.2178 3.50661ZM12.573 15.1176L13.918 16.5346L14.123 16.7507C13.151 17.1566 12.08 17.4254 10.896 17.4571C10.814 17.4602 10.731 17.4613 10.65 17.4613C4.787 17.4613 1.387 11.7628 0.757 10.6051C0.581 10.2804 0.581 9.88083 0.757 9.55611C1.172 8.7949 2.148 7.19341 3.67 5.73004L5.201 7.34523L7.187 9.43803C7.151 9.64783 7.125 9.8608 7.125 10.0812C7.125 12.116 8.695 13.7712 10.625 13.7712C10.834 13.7712 11.036 13.7438 11.235 13.7059L12.504 15.0438L12.573 15.1176Z" fill="#343C44"/>
</svg>
